<svg xmlns="http://www.w3.org/2000/svg"  viewBox="0 0 32 32" width="32px" height="32px"><path d="M29.4771729 10.2679443l-1.3079224-.7223511C28.1901245 9.3640137 28.2267456 9.1868896 28.2267456 9s-.0366211-.3640137-.0574951-.5455933l1.3079224-.7223511c.499939-.2761841.6712646-.8877563.3826294-1.3660278l-1.0453491-1.7320557c-.2886963-.4783325-.9280396-.6421509-1.4279785-.3660278l-1.2982178.71698c-.3105469-.2189941-.6398926-.4130249-.9975586-.5628052V3c0-.5523071-.4680176-1-1.0453491-1h-2.0906982c-.5773315 0-1.0453491.4476929-1.0453491 1v1.4221191c-.357666.1497803-.6870117.343811-.9975586.5628052l-1.2982178-.71698c-.499939-.276123-1.1392822-.1123047-1.4279785.3660278l-1.0453491 1.7320557c-.2886353.4782715-.1173096 1.0898438.3826294 1.3660278l1.3079224.7223511C17.8098755 8.6359863 17.7732544 8.8131104 17.7732544 9s.0366211.3640137.0574951.5455933l-1.3079224.7223511c-.499939.276123-.6712646.8876953-.3826294 1.3660278l1.0453491 1.7320557c.2886963.4782715.9280396.6421509 1.4279785.3660278l1.2982178-.71698c.3105469.2189941.6398926.4130249.9975586.5628052V15c0 .5522461.4680176 1 1.0453491 1h2.0906982c.5773315 0 1.0453491-.4477539 1.0453491-1v-1.4221191c.357666-.1497803.6870117-.343811.9975586-.5628052l1.2982178.71698c.499939.276123 1.1392822.1122437 1.4279785-.3660278l1.0453491-1.7320557C30.1484375 11.1556396 29.9771118 10.5440674 29.4771729 10.2679443zM26 9.5h-1.7929688l1.1464844 1.1464844c.1953125.1953125.1953125.5117188 0 .7070313C25.2558594 11.4511719 25.1279297 11.5 25 11.5s-.2558594-.0488281-.3535156-.1464844L23.5 10.2070313V12c0 .2763672-.2236328.5-.5.5s-.5-.2236328-.5-.5v-1.7929688l-1.1464844 1.1464844C21.2558594 11.4511719 21.1279297 11.5 21 11.5s-.2558594-.0488281-.3535156-.1464844c-.1953125-.1953125-.1953125-.5117188 0-.7070313L21.7929688 9.5H20c-.2763672 0-.5-.2236328-.5-.5s.2236328-.5.5-.5h1.7929688l-1.1464844-1.1464844c-.1953125-.1953125-.1953125-.5117188 0-.7070313s.5117188-.1953125.7070313 0L22.5 7.7929688V6c0-.2763672.2236328-.5.5-.5s.5.2236328.5.5v1.7929688l1.1464844-1.1464844c.1953125-.1953125.5117188-.1953125.7070313 0s.1953125.5117188 0 .7070313L24.2070313 8.5H26c.2763672 0 .5.2236328.5.5S26.2763672 9.5 26 9.5zM21.0000038 30H4.9999971C3.3431444 30 2 28.6568565 2 27.0000038V27h22v.0000038C24 28.6568565 22.6568565 30 21.0000038 30zM20 16H6c-1.1045532 0-2 .8954468-2 2v8h18v-8C22 16.8954468 21.1045532 16 20 16zM11.8203125 23.1156616c.2119141.1767578.2402344.4921875.0634766.7046509C11.7851563 23.9389648 11.6425781 24 11.5 24c-.1132813 0-.2265625-.0380859-.3203125-.1157227l-3-2.5002441C8.0654297 21.2888184 8 21.1481934 8 20.9997559c0-.1484985.0654297-.2891235.1796875-.3843384l3-2.5002441c.2119141-.1748047.5263672-.1484375.7041016.0640259.1767578.2124023.1484375.527832-.0634766.7046509L9.28125 20.9997559 11.8203125 23.1156616zM17.8201294 21.3840332l-3 2.5002441C14.7263794 23.9619141 14.6130981 24 14.4998169 24c-.1425781 0-.2851563-.0610352-.3837891-.1796875-.1767578-.2124634-.1484375-.5278931.0634766-.7046509l2.5390625-2.1159058-2.5390625-2.1159058c-.2119141-.1768188-.2402344-.4922485-.0634766-.7046509.1777344-.2124634.4921875-.2388306.7041016-.0640259l3 2.5002441c.1142578.0952148.1796875.2358398.1796875.3843384C17.9998169 21.1481934 17.9343872 21.2888184 17.8201294 21.3840332z"/></svg>