<svg xmlns="http://www.w3.org/2000/svg"  viewBox="0 0 32 32" width="32px" height="32px"><path d="M 17.953125 2 C 17.400391 2 16.953125 2.4477539 16.953125 3 L 16.953125 4.5820312 C 16.246094 4.8623046 15.575684 5.2421876 14.970703 5.7070312 L 13.537109 4.8964844 C 13.06543 4.6293946 12.462402 4.7919921 12.185547 5.2597656 L 10.138672 8.7226562 C 10.001953 8.9541016 9.9633789 9.2304688 10.033203 9.4902344 C 10.102539 9.7495117 10.275391 9.9711914 10.509766 10.103516 L 11.917969 10.898438 C 11.863769 11.269531 11.835938 11.637695 11.835938 12 C 11.835938 12.362305 11.86377 12.730469 11.917969 13.101562 C 11.917969 13.101562 10.432068 13.966858 10.390625 14 L 7 14 C 5.3457031 14 4 15.345703 4 17 L 4 26 L 3 26 C 2.4477539 26 2 26.447754 2 27 C 2 28.654297 3.3457031 30 5 30 L 23 30 C 24.654297 30 26 28.654297 26 27 C 26 26.447754 25.552734 26 25 26 L 24 26 L 24 18.927734 C 24.06311 18.90625 24.760742 18.500977 25.029297 18.294922 L 26.462891 19.103516 C 26.618164 19.190918 26.787109 19.232422 26.953125 19.232422 C 27.295898 19.232422 27.62793 19.055664 27.814453 18.740234 L 29.861328 15.277344 C 29.998047 15.045898 30.036133 14.769531 29.966797 14.509766 C 29.897461 14.250488 29.724609 14.028809 29.490234 13.896484 L 28.082031 13.101562 C 28.136719 12.729492 28.164062 12.361816 28.164062 12 C 28.164062 11.638184 28.136719 11.270508 28.082031 10.898438 L 29.490234 10.103516 C 29.724609 9.9711914 29.895508 9.7495117 29.964844 9.4902344 C 30.03418 9.2304688 29.998047 8.9541015 29.861328 8.7226562 L 27.814453 5.2597656 C 27.538086 4.7919922 26.9375 4.6298828 26.460938 4.8964844 L 25.027344 5.7070312 C 24.422852 5.2421875 23.753906 4.8623047 23.046875 4.5820312 L 23.046875 3 C 23.046875 2.4477539 22.599609 2 22.046875 2 L 17.953125 2 z M 18.953125 4 L 21.046875 4 L 21.046875 5.2929688 C 21.046875 5.737793 21.34082 6.1293945 21.767578 6.2539062 C 22.681641 6.5195312 23.536133 7.0039063 24.238281 7.6523438 C 24.557617 7.9482422 25.032227 8.0014648 25.408203 7.7890625 L 26.591797 7.1210938 L 27.621094 8.8613281 L 26.472656 9.5097656 C 26.083008 9.7294923 25.886719 10.180664 25.992188 10.615234 C 26.106445 11.086914 26.164062 11.553711 26.164062 12 C 26.164062 12.446289 26.106445 12.913086 25.992188 13.384766 C 25.886719 13.819336 26.083008 14.270508 26.472656 14.490234 L 27.621094 15.136719 L 26.589844 16.878906 L 25.40625 16.210938 C 25.030273 15.999512 24.558594 16.052734 24.238281 16.347656 C 24.149475 16.42981 24.050781 16.503174 23.957031 16.580078 C 23.843262 15.778198 23.416687 15.082703 22.798828 14.615234 L 24.707031 12.707031 C 25.097656 12.316406 25.097656 11.683594 24.707031 11.292969 L 22.707031 9.2929688 C 22.316406 8.9023438 21.683594 8.9023438 21.292969 9.2929688 C 20.902344 9.6835938 20.902344 10.316406 21.292969 10.707031 L 22.585938 12 L 21.292969 13.292969 C 21.097656 13.488281 21 13.744141 21 14 L 19 14 C 19 13.744141 18.902344 13.488281 18.707031 13.292969 L 17.414062 12 L 18.707031 10.707031 C 19.097656 10.316406 19.097656 9.6835937 18.707031 9.2929688 C 18.316406 8.9023438 17.683594 8.9023438 17.292969 9.2929688 L 15.292969 11.292969 C 14.902344 11.683594 14.902344 12.316406 15.292969 12.707031 L 16.585938 14 L 13.958984 14 C 14.037903 13.809021 14.059326 13.594299 14.007812 13.382812 C 13.893555 12.913574 13.835937 12.448242 13.835938 12 C 13.835938 11.551758 13.893555 11.086426 14.007812 10.617188 C 14.11377 10.182129 13.917481 9.7299805 13.527344 9.5097656 L 12.378906 8.8632812 L 13.410156 7.1210938 L 14.59375 7.7890625 C 14.972168 8.0029297 15.444336 7.946289 15.761719 7.6523438 C 16.464844 7.0029297 17.319336 6.5190429 18.232422 6.2539062 C 18.65918 6.1293945 18.953125 5.7397461 18.953125 5.2949219 L 18.953125 4 z M 7 16 L 21 16 C 21.551758 16 22 16.44873 22 17 L 22 26 L 6 26 L 6 17 C 6 16.44873 6.4487305 16 7 16 z M 14 17 C 13.447754 17 13 17.447754 13 18 L 13 18.585938 L 12.707031 18.292969 C 12.316406 17.902344 11.683594 17.902344 11.292969 18.292969 C 10.902344 18.683594 10.902344 19.316406 11.292969 19.707031 L 11.585938 20 L 11 20 C 10.447754 20 10 20.447754 10 21 C 10 21.552246 10.447754 22 11 22 L 11.585938 22 L 11.292969 22.292969 C 10.902344 22.683594 10.902344 23.316406 11.292969 23.707031 C 11.488281 23.902344 11.744141 24 12 24 C 12.255859 24 12.511719 23.902344 12.707031 23.707031 L 13 23.414062 L 13 24 C 13 24.552246 13.447754 25 14 25 C 14.552246 25 15 24.552246 15 24 L 15 23.414062 L 15.292969 23.707031 C 15.488281 23.902344 15.744141 24 16 24 C 16.255859 24 16.511719 23.902344 16.707031 23.707031 C 17.097656 23.316406 17.097656 22.683594 16.707031 22.292969 L 16.414062 22 L 17 22 C 17.552734 22 18 21.552246 18 21 C 18 20.447754 17.552734 20 17 20 L 16.414062 20 L 16.707031 19.707031 C 17.097656 19.316406 17.097656 18.683594 16.707031 18.292969 C 16.316406 17.902344 15.683594 17.902344 15.292969 18.292969 L 15 18.585938 L 15 18 C 15 17.447754 14.552246 17 14 17 z"/></svg>